<svg width="60" height="60" viewBox="0 0 60 60" fill="none" xmlns="http://www.w3.org/2000/svg">
<path d="M29.5062 8.33334C24.9238 8.33849 20.5306 10.1473 17.2903 13.363C14.0501 16.5786 12.2274 20.9385 12.2222 25.4861C12.2222 40.1635 27.9349 51.2484 28.6047 51.7123C28.8689 51.896 29.1836 51.9945 29.5062 51.9945C29.8287 51.9945 30.1435 51.896 30.4077 51.7123C31.0774 51.2484 46.7901 40.1635 46.7901 25.4861C46.7849 20.9385 44.9623 16.5786 41.722 13.363C38.4818 10.1473 34.0886 8.33849 29.5062 8.33334Z" fill="#660910"/>
<path d="M25.5 24H33.5M25.5 32H33.5M25.5 36V30C25.5 29.4696 25.7107 28.9609 26.0858 28.5858C26.4609 28.2107 26.9696 28 27.5 28H31.5C32.0304 28 32.5391 28.2107 32.9142 28.5858C33.2893 28.9609 33.5 29.4696 33.5 30V36M26.5 20V18C26.5 17.4696 26.7107 16.9609 27.0858 16.5858C27.4609 16.2107 27.9696 16 28.5 16H30.5C31.0304 16 31.5391 16.2107 31.9142 16.5858C32.2893 16.9609 32.5 17.4696 32.5 18V20M21.5 24C21.5 22.9391 21.9214 21.9217 22.6716 21.1716C23.4217 20.4214 24.4391 20 25.5 20H33.5C34.5609 20 35.5783 20.4214 36.3284 21.1716C37.0786 21.9217 37.5 22.9391 37.5 24V34C37.5 34.5304 37.2893 35.0391 36.9142 35.4142C36.5391 35.7893 36.0304 36 35.5 36H23.5C22.9696 36 22.4609 35.7893 22.0858 35.4142C21.7107 35.0391 21.5 34.5304 21.5 34V24Z" stroke="white" stroke-width="2" stroke-linecap="round" stroke-linejoin="round"/>
</svg>
