<svg width="60" height="60" viewBox="0 0 60 60" fill="none" xmlns="http://www.w3.org/2000/svg">
<path d="M29.5062 8.33334C24.9238 8.33849 20.5306 10.1473 17.2903 13.363C14.0501 16.5786 12.2274 20.9385 12.2222 25.4861C12.2222 40.1635 27.9349 51.2484 28.6047 51.7123C28.8689 51.896 29.1836 51.9945 29.5062 51.9945C29.8287 51.9945 30.1435 51.896 30.4077 51.7123C31.0774 51.2484 46.7901 40.1635 46.7901 25.4861C46.7849 20.9385 44.9623 16.5786 41.722 13.363C38.4818 10.1473 34.0886 8.33849 29.5062 8.33334Z" fill="#660910"/>
<path d="M26 24H34M26 32H34M26 36V30C26 29.4696 26.2107 28.9609 26.5858 28.5858C26.9609 28.2107 27.4696 28 28 28H32C32.5304 28 33.0391 28.2107 33.4142 28.5858C33.7893 28.9609 34 29.4696 34 30V36M27 20V18C27 17.4696 27.2107 16.9609 27.5858 16.5858C27.9609 16.2107 28.4696 16 29 16H31C31.5304 16 32.0391 16.2107 32.4142 16.5858C32.7893 16.9609 33 17.4696 33 18V20M22 24C22 22.9391 22.4214 21.9217 23.1716 21.1716C23.9217 20.4214 24.9391 20 26 20H34C35.0609 20 36.0783 20.4214 36.8284 21.1716C37.5786 21.9217 38 22.9391 38 24V34C38 34.5304 37.7893 35.0391 37.4142 35.4142C37.0391 35.7893 36.5304 36 36 36H24C23.4696 36 22.9609 35.7893 22.5858 35.4142C22.2107 35.0391 22 34.5304 22 34V24Z" stroke="white" stroke-width="2" stroke-linecap="round" stroke-linejoin="round"/>
</svg>
