<svg width="60" height="60" viewBox="0 0 60 60" fill="none" xmlns="http://www.w3.org/2000/svg">
<path d="M29.5062 8.33334C24.9238 8.33849 20.5306 10.1473 17.2903 13.363C14.0501 16.5786 12.2274 20.9385 12.2222 25.4861C12.2222 40.1635 27.9349 51.2484 28.6047 51.7123C28.8689 51.896 29.1836 51.9945 29.5062 51.9945C29.8287 51.9945 30.1435 51.896 30.4077 51.7123C31.0774 51.2484 46.7901 40.1635 46.7901 25.4861C46.7849 20.9385 44.9623 16.5786 41.722 13.363C38.4818 10.1473 34.0886 8.33849 29.5062 8.33334Z" fill="#660910"/>
<path d="M39 23.0005L37 25.0005M37 25.0005L35.5 21.3005C35.3585 20.9219 35.1057 20.595 34.7747 20.3629C34.4437 20.1308 34.0502 20.0045 33.646 20.0005H26.4C25.9925 19.9912 25.5919 20.1065 25.2518 20.3312C24.9117 20.5558 24.6483 20.8791 24.497 21.2575L23 25.0005M37 25.0005H23M37 25.0005C38.1046 25.0005 39 25.896 39 27.0005V31.0005C39 32.1051 38.1046 33.0005 37 33.0005M23 25.0005L21 23.0005M23 25.0005C21.8954 25.0005 21 25.896 21 27.0005V31.0005C21 32.1051 21.8954 33.0005 23 33.0005M25 29.0005H25.01M35 29.0005H35.01M37 33.0005H23M37 33.0005V35.0005M23 33.0005V35.0005" stroke="white" stroke-width="2" stroke-linecap="round" stroke-linejoin="round"/>
</svg>
