<svg width="60" height="60" viewBox="0 0 60 60" fill="none" xmlns="http://www.w3.org/2000/svg">
<path d="M29.5062 8.33334C24.9238 8.33849 20.5306 10.1473 17.2903 13.363C14.0501 16.5786 12.2274 20.9385 12.2222 25.4861C12.2222 40.1635 27.9349 51.2484 28.6047 51.7123C28.8689 51.896 29.1836 51.9945 29.5062 51.9945C29.8287 51.9945 30.1435 51.896 30.4077 51.7123C31.0774 51.2484 46.7901 40.1635 46.7901 25.4861C46.7849 20.9385 44.9623 16.5786 41.722 13.363C38.4818 10.1473 34.0886 8.33849 29.5062 8.33334Z" fill="#660910"/>
<path d="M38.5 22.0005L36.5 24.0005M36.5 24.0005L35 20.3005C34.8585 19.9219 34.6057 19.595 34.2747 19.3629C33.9437 19.1308 33.5502 19.0045 33.146 19.0005H25.9C25.4925 18.9912 25.0919 19.1065 24.7518 19.3312C24.4117 19.5558 24.1483 19.8791 23.997 20.2575L22.5 24.0005M36.5 24.0005H22.5M36.5 24.0005C37.6046 24.0005 38.5 24.896 38.5 26.0005V30.0005C38.5 31.1051 37.6046 32.0005 36.5 32.0005M22.5 24.0005L20.5 22.0005M22.5 24.0005C21.3954 24.0005 20.5 24.896 20.5 26.0005V30.0005C20.5 31.1051 21.3954 32.0005 22.5 32.0005M24.5 28.0005H24.51M34.5 28.0005H34.51M36.5 32.0005H22.5M36.5 32.0005V34.0005M22.5 32.0005V34.0005" stroke="white" stroke-width="2" stroke-linecap="round" stroke-linejoin="round"/>
</svg>
