<?xml version="1.0" encoding="UTF-8" standalone="no"?>
<svg
   width="60"
   height="60"
   viewBox="0 0 60 60"
   fill="none"
   version="1.1"
   id="svg2"
   xml:space="preserve"
   xmlns="http://www.w3.org/2000/svg"
   xmlns:svg="http://www.w3.org/2000/svg"><defs
     id="defs2" /><path
     d="m 29.5062,8.33334 c -4.5824,0.00515 -8.9756,1.81396 -12.2159,5.02966 -3.2402,3.2156 -5.0629,7.5755 -5.0681,12.1231 0,14.6774 15.7127,25.7623 16.3825,26.2262 0.2642,0.1837 0.5789,0.2822 0.9015,0.2822 0.3225,0 0.6373,-0.0985 0.9015,-0.2822 C 31.0774,51.2484 46.7901,40.1635 46.7901,25.4861 46.7849,20.9385 44.9623,16.5786 41.722,13.363 38.4818,10.1473 34.0886,8.33849 29.5062,8.33334 Z"
     fill="#660910"
     id="path1" /><g
     id="layer1"><g
       style="fill:#ffffff;stroke:#ffffff"
       id="g2"
       transform="matrix(0.07387707,0,0,0.07387707,10.709611,8.3803037)"><g
         id="SVGRepo_bgCarrier"
         stroke-width="0" /><g
         id="SVGRepo_tracerCarrier"
         stroke-linecap="round"
         stroke-linejoin="round" /><g
         id="SVGRepo_iconCarrier"> <g
   id="Layer_1" /> <g
   id="Layer_2"> <g
   id="g1"> <path
   d="m 417.2,351 h -3.8 V 168.4 c 0,-0.1 0,-0.1 0,-0.2 0,-0.1 0,-0.2 0,-0.3 0,-0.1 0,-0.1 0,-0.2 0,-0.1 0,-0.1 0,-0.2 0,-0.1 0,-0.2 0,-0.3 0,-0.1 0,-0.2 0,-0.2 0,-0.1 0,-0.1 0,-0.2 0,-0.1 0,-0.2 -0.1,-0.3 0,-0.1 0,-0.2 -0.1,-0.2 0,-0.1 0,-0.1 -0.1,-0.2 0,-0.1 -0.1,-0.2 -0.1,-0.3 0,-0.1 -0.1,-0.2 -0.1,-0.2 0,-0.1 0,-0.1 -0.1,-0.2 0,-0.1 -0.1,-0.2 -0.1,-0.3 0,-0.1 -0.1,-0.2 -0.1,-0.2 0,0 -0.1,-0.1 -0.1,-0.1 -0.1,-0.1 -0.1,-0.2 -0.2,-0.3 0,-0.1 -0.1,-0.1 -0.1,-0.2 0,0 -0.1,-0.1 -0.1,-0.1 -0.1,-0.1 -0.1,-0.2 -0.2,-0.3 0,-0.1 -0.1,-0.1 -0.1,-0.2 0,0 -0.1,-0.1 -0.1,-0.1 -0.1,-0.1 -0.2,-0.2 -0.2,-0.3 -0.1,-0.1 -0.1,-0.1 -0.1,-0.2 C 355.3,107 297.6,80.7 240,84.9 c -44.4,3.3 -80.1,24.6 -102.1,41.9 -23.8,18.7 -37.1,36.4 -37.7,37.2 0,0 0,0 0,0 0,0.1 -0.1,0.1 -0.1,0.2 -0.1,0.1 -0.1,0.2 -0.2,0.3 0,0 0,0 0,0 0,0 -0.1,0.1 -0.1,0.1 0,0 -0.1,0.1 -0.1,0.1 -0.1,0.1 -0.1,0.2 -0.2,0.3 0,0 0,0 0,0 0,0.1 -0.1,0.1 -0.1,0.2 0,0 0,0.1 -0.1,0.1 0,0.1 -0.1,0.2 -0.1,0.3 0,0.1 -0.1,0.2 -0.1,0.2 0,0 0,0.1 0,0.1 0,0 0,0 0,0 0,0.1 -0.1,0.2 -0.1,0.3 0,0.1 -0.1,0.2 -0.1,0.4 0,0.1 0,0.2 -0.1,0.3 0,0.1 0,0.3 -0.1,0.4 0,0.1 0,0.2 0,0.3 0,0.1 0,0.3 0,0.4 0,0 0,0 0,0 0,0.1 0,0.1 0,0.2 V 351 h -3.8 c -4.1,0 -7.5,3.4 -7.5,7.5 v 33.6 c 0,4.1 3.4,7.5 7.5,7.5 h 85.7 V 420 c 0,4.1 3.4,7.5 7.5,7.5 h 136 c 4.1,0 7.5,-3.4 7.5,-7.5 v -20.4 h 85.7 c 4.1,0 7.5,-3.4 7.5,-7.5 v -33.6 c -0.1,-4.1 -3.4,-7.5 -7.6,-7.5 z m -29.5,-23.6 10.7,-11.7 v 23.4 z m -20.3,-128 -10.7,11.7 v -23.5 z m 31,75.8 -10.7,-11.7 10.7,-11.7 z m -1.8,-43.8 -19,20.9 -19,-20.9 19,-20.9 z m -8.9,-32 10.7,-11.7 v 23.5 z m -30.9,52.3 10.7,11.7 -10.7,11.7 z m 0,64 10.7,11.7 -10.7,11.7 z m 1.8,-20.3 19,-20.9 19,20.9 -19,20.9 z m 19,-107.1 -11.4,-12.5 H 389 Z m -35.8,2.1 H 170.2 v -14.6 h 171.5 v 14.6 z m -217.5,9 -10.7,11.7 v -23.5 z m 30.9,75.8 -10.7,-11.7 10.7,-11.7 z m 0,-64 -10.7,-11.7 10.7,-11.7 z m -1.8,20.2 -19,20.9 -19,-20.9 19,-20.9 z m -29.1,32 -10.7,11.7 v -23.5 z m 10.1,11.2 19,20.9 -19,20.9 -19,-20.9 z m 20.8,41.1 v 23.4 L 144.5,327.4 Z M 134.4,188.3 123,175.9 h 22.7 z m -10.1,139.1 -10.7,11.7 v -23.4 z m 10.1,11.2 11.4,12.5 H 123 Z m 35.8,-133.2 h 29.3 v 7.9 h -3.8 c -4.1,0 -7.5,3.4 -7.5,7.5 0,4.1 3.4,7.5 7.5,7.5 h 22.7 c 4.1,0 7.5,-3.4 7.5,-7.5 0,-4.1 -3.4,-7.5 -7.5,-7.5 h -3.8 v -7.9 h 33.9 v 7.9 h -3.8 c -4.1,0 -7.5,3.4 -7.5,7.5 0,4.1 3.4,7.5 7.5,7.5 h 22.7 c 4.1,0 7.5,-3.4 7.5,-7.5 0,-4.1 -3.4,-7.5 -7.5,-7.5 h -3.8 v -7.9 h 33.9 v 7.9 h -3.8 c -4.1,0 -7.5,3.4 -7.5,7.5 0,4.1 3.4,7.5 7.5,7.5 h 22.7 c 4.1,0 7.5,-3.4 7.5,-7.5 0,-4.1 -3.4,-7.5 -7.5,-7.5 h -3.8 v -7.9 h 29.3 V 351 H 170.2 Z M 377.6,338.6 389,351 H 366.3 Z M 241.1,99.8 c 48.5,-3.5 97.6,17 146.1,61.1 H 349.3 162.7 122.5 c 18.7,-19.7 61.3,-57 118.6,-61.1 z m 75.4,312.8 h -121 V 391 h 121 z m 93.2,-28 h -78.2 v -1.2 c 0,-4.1 -3.4,-7.5 -7.5,-7.5 H 188 c -4.1,0 -7.5,3.4 -7.5,7.5 v 1.2 H 102.3 V 366 h 3.8 56.7 186.5 56.7 3.8 v 18.6 z"
   id="path1-3" /> </g> </g> </g></g></g></svg>
