<svg width="60" height="60" viewBox="0 0 60 60" fill="none" xmlns="http://www.w3.org/2000/svg">
<path d="M29.5062 8.33334C24.9238 8.33849 20.5306 10.1473 17.2903 13.363C14.0501 16.5786 12.2274 20.9385 12.2222 25.4861C12.2222 40.1635 27.9349 51.2484 28.6047 51.7123C28.8689 51.896 29.1836 51.9945 29.5062 51.9945C29.8287 51.9945 30.1435 51.896 30.4077 51.7123C31.0774 51.2484 46.7901 40.1635 46.7901 25.4861C46.7849 20.9385 44.9623 16.5786 41.722 13.363C38.4818 10.1473 34.0886 8.33849 29.5062 8.33334Z" fill="#660910"/>
<path d="M32.5 34.9995V26.9995C32.5 26.7343 32.3946 26.4799 32.2071 26.2924C32.0196 26.1048 31.7652 25.9995 31.5 25.9995H27.5C27.2348 25.9995 26.9804 26.1048 26.7929 26.2924C26.6054 26.4799 26.5 26.7343 26.5 26.9995V34.9995M20.5 23.9995C20.4999 23.7085 20.5633 23.4211 20.6858 23.1572C20.8082 22.8933 20.9868 22.6593 21.209 22.4715L28.209 16.4725C28.57 16.1674 29.0274 16 29.5 16C29.9726 16 30.43 16.1674 30.791 16.4725L37.791 22.4715C38.0132 22.6593 38.1918 22.8933 38.3142 23.1572C38.4367 23.4211 38.5001 23.7085 38.5 23.9995V32.9995C38.5 33.5299 38.2893 34.0386 37.9142 34.4137C37.5391 34.7888 37.0304 34.9995 36.5 34.9995H22.5C21.9696 34.9995 21.4609 34.7888 21.0858 34.4137C20.7107 34.0386 20.5 33.5299 20.5 32.9995V23.9995Z" stroke="white" stroke-width="2" stroke-linecap="round" stroke-linejoin="round"/>
</svg>
