<svg width="60" height="60" viewBox="0 0 60 60" fill="none" xmlns="http://www.w3.org/2000/svg">
<path d="M29.5062 8.33334C24.9238 8.33849 20.5306 10.1473 17.2903 13.363C14.0501 16.5786 12.2274 20.9385 12.2222 25.4861C12.2222 40.1635 27.9349 51.2484 28.6047 51.7123C28.8689 51.896 29.1836 51.9945 29.5062 51.9945C29.8287 51.9945 30.1435 51.896 30.4077 51.7123C31.0774 51.2484 46.7901 40.1635 46.7901 25.4861C46.7849 20.9385 44.9623 16.5786 41.722 13.363C38.4818 10.1473 34.0886 8.33849 29.5062 8.33334Z" fill="#660910"/>
<path d="M33 34.9995V26.9995C33 26.7343 32.8946 26.4799 32.7071 26.2924C32.5196 26.1048 32.2652 25.9995 32 25.9995H28C27.7348 25.9995 27.4804 26.1048 27.2929 26.2924C27.1054 26.4799 27 26.7343 27 26.9995V34.9995M21 23.9995C20.9999 23.7085 21.0633 23.4211 21.1858 23.1572C21.3082 22.8933 21.4868 22.6593 21.709 22.4715L28.709 16.4725C29.07 16.1674 29.5274 16 30 16C30.4726 16 30.93 16.1674 31.291 16.4725L38.291 22.4715C38.5132 22.6593 38.6918 22.8933 38.8142 23.1572C38.9367 23.4211 39.0001 23.7085 39 23.9995V32.9995C39 33.5299 38.7893 34.0386 38.4142 34.4137C38.0391 34.7888 37.5304 34.9995 37 34.9995H23C22.4696 34.9995 21.9609 34.7888 21.5858 34.4137C21.2107 34.0386 21 33.5299 21 32.9995V23.9995Z" stroke="white" stroke-width="2" stroke-linecap="round" stroke-linejoin="round"/>
</svg>
