<svg width="60" height="60" viewBox="0 0 60 60" fill="none" xmlns="http://www.w3.org/2000/svg">
<path d="M29.5062 8.33334C24.9238 8.33849 20.5306 10.1473 17.2903 13.363C14.0501 16.5786 12.2274 20.9385 12.2222 25.4861C12.2222 40.1635 27.9349 51.2484 28.6047 51.7123C28.8689 51.896 29.1836 51.9945 29.5062 51.9945C29.8287 51.9945 30.1435 51.896 30.4077 51.7123C31.0774 51.2484 46.7901 40.1635 46.7901 25.4861C46.7849 20.9385 44.9623 16.5786 41.722 13.363C38.4818 10.1473 34.0886 8.33849 29.5062 8.33334Z" fill="#660910"/>
<path d="M20 17V24C20 25.1 20.9 26 22 26H26C26.5304 26 27.0391 25.7893 27.4142 25.4142C27.7893 25.0391 28 24.5304 28 24V17M24 17V37M38 30V17C36.6739 17 35.4021 17.5268 34.4645 18.4645C33.5268 19.4021 33 20.6739 33 22V28C33 29.1 33.9 30 35 30H38ZM38 30V37" stroke="white" stroke-width="2" stroke-linecap="round" stroke-linejoin="round"/>
</svg>
