<svg width="60" height="60" viewBox="0 0 60 60" fill="none" xmlns="http://www.w3.org/2000/svg">
<path d="M29.5062 8.33334C24.9238 8.33849 20.5306 10.1473 17.2903 13.363C14.0501 16.5786 12.2274 20.9385 12.2222 25.4861C12.2222 40.1635 27.9349 51.2484 28.6047 51.7123C28.8689 51.896 29.1836 51.9945 29.5062 51.9945C29.8287 51.9945 30.1435 51.896 30.4077 51.7123C31.0774 51.2484 46.7901 40.1635 46.7901 25.4861C46.7849 20.9385 44.9623 16.5786 41.722 13.363C38.4818 10.1473 34.0886 8.33849 29.5062 8.33334Z" fill="#660910"/>
<path d="M20 18V25C20 26.1 20.9 27 22 27H26C26.5304 27 27.0391 26.7893 27.4142 26.4142C27.7893 26.0391 28 25.5304 28 25V18M24 18V38M38 31V18C36.6739 18 35.4021 18.5268 34.4645 19.4645C33.5268 20.4021 33 21.6739 33 23V29C33 30.1 33.9 31 35 31H38ZM38 31V38" stroke="white" stroke-width="2" stroke-linecap="round" stroke-linejoin="round"/>
</svg>
