<?xml version="1.0" encoding="UTF-8"?>
<svg viewBox="0 0 12.3 2.89" xmlns="http://www.w3.org/2000/svg">
    <path fill="#fff" fill-rule="evenodd"
        d="m 12.3,0.87 v 0.57 l -1,0.86 h -0.38 V 1.85 h 0.23 L 11.89,1.23 V 1.12 A 0.08,0.08 0 0 0 11.8,1.05 h -0.86 c 0,0 -0.09,0 -0.09,0.07 v 1.76 h -0.43 v -2 a 0.26,0.26 0 0 1 0.25,-0.26 h 1.38 A 0.26,0.26 0 0 1 12.3,0.87 Z M 10.15,0.62 H 9.71 V 1.55 A 0.32,0.32 0 0 1 9.61,1.77 0.3,0.3 0 0 1 9.45,1.85 H 8.94 A 0.3,0.3 0 0 1 8.78,1.77 0.28,0.28 0 0 1 8.68,1.56 v 0 0 -0.94 H 8.24 v 1.16 c 0,0 0,0.06 -0.07,0.07 H 6.56 A 0.08,0.08 0 0 1 6.48,1.76 v 0 0 -0.61 A 0.09,0.09 0 0 1 6.56,1.06 H 7.37 A 0.09,0.09 0 0 1 7.45,1.15 0.08,0.08 0 0 1 7.37,1.24 H 6.56 V 1.68 H 7.71 A 0.26,0.26 0 0 0 7.96,1.44 V 0.88 A 0.26,0.26 0 0 0 7.71,0.62 H 6.23 A 0.26,0.26 0 0 0 5.97,0.88 v 0 0.84 0 0.32 0 a 0.26,0.26 0 0 0 0.26,0.25 h 4.08 V 1.84 A 0.34,0.34 0 0 1 10.15,1.55 Z M 5.15,1 5.81,0.44 V 0.04 L 4.75,0.94 V 1.23 H 2.85 A 0.08,0.08 0 0 1 2.77,1.14 v 0 0 -0.6 A 0.08,0.08 0 0 1 2.85,0.44 H 3.67 A 0.08,0.08 0 0 1 3.74,0.52 0.08,0.08 0 0 1 3.67,0.61 H 2.85 V 1.05 H 4 A 0.25,0.25 0 0 0 4.25,0.8 V 0.26 A 0.25,0.25 0 0 0 4,0.01 H 2.52 A 0.26,0.26 0 0 0 2.26,0.26 v 0.84 0 0.34 a 0.26,0.26 0 0 0 0.26,0.25 h 2.23 v 1.2 h 0.4 V 1.67 h 0.7 V 1.23 H 5.15 Z M 0,0.87 v 0.23 0 0.34 A 0.26,0.26 0 0 0 0.26,1.69 H 1.75 A 0.25,0.25 0 0 0 2,1.44 V 1.13 H 1.49 A 0.08,0.08 0 0 1 1.42,1.22 H 0.59 A 0.08,0.08 0 0 1 0.52,1.14 v 0 A 0.08,0.08 0 0 1 0.59,1.05 H 2.15 V 0.62 H 0.26 A 0.26,0.26 0 0 0 0,0.87 Z M 1.48,0.53 H 2 V 0.26 A 0.26,0.26 0 0 0 1.74,0 H 0 v 0.44 h 1.41 c 0,0 0.07,0.05 0.07,0.09 z" />
</svg>