<svg width="3586" height="3586" viewBox="0 0 3586 3586" fill="none" xmlns="http://www.w3.org/2000/svg">
<g clip-path="url(#clip0_3308_177)">
<path d="M758.642 631.99L238.673 923.917L238.417 924.061V924.353V1429.25H221.487V914.117L750.192 617.931L758.642 631.99Z" fill="#75171E" stroke="#75171E"/>
<path d="M238.917 1429.75H220.987V1507.84H238.917V1429.75Z" fill="#75171E"/>
<path d="M221.487 2678.9V2085.68H238.417V2668.66V2668.95L238.672 2669.1L718.299 2938.65L709.849 2952.71L221.487 2678.9Z" fill="#75171E" stroke="#75171E"/>
<path d="M718.505 2938.32L709.59 2953.55L749.647 2976.01L758.561 2960.79L718.505 2938.32Z" fill="#75171E"/>
<path d="M1786.48 3541.69L1786.72 3541.83L1786.97 3541.69L2335.2 3234.39L2343.65 3248.45L1786.72 3560.86L1258.48 3264.24L1266.93 3250.19L1786.48 3541.69Z" fill="#75171E" stroke="#75171E"/>
<path d="M2838.05 2975.08L2829.6 2961.02L3349.12 2669.1L3349.38 2668.95V2668.66V2139.64H3366.31V2678.88L3362.1 2680.93L3362.09 2680.94L3362.08 2680.95L2838.05 2975.08Z" fill="#75171E" stroke="#75171E"/>
<path d="M3366.31 914.117V1507.34H3349.38V924.353V924.061L3349.12 923.918L2829.6 631.99L2838.05 617.931L3366.31 914.117Z" fill="#75171E" stroke="#75171E"/>
<path d="M2358 344.569L2349.55 358.628L1801.31 51.3304L1801.07 51.1933L1800.82 51.3304L1252.59 358.628L1244.14 344.569L1801.07 32.1592L2358 344.569Z" fill="#75171E" stroke="#75171E"/>
<path d="M2877.94 2952.71L2869.49 2938.65L3349.12 2669.1L3349.38 2668.95V2668.66V2085.68H3366.31V2678.88L3362.1 2680.93L3362.09 2680.94L3362.08 2680.95L2877.94 2952.71Z" fill="#75171E" stroke="#75171E"/>
<path d="M3586.9 1796.51L2690.4 3305.22H897.396L0.896484 1796.51L155.991 1535.04L897.396 287.789H2690.4L3586.9 1796.51Z" fill="#B33636"/>
<path d="M2012.19 2536.61H1747.28C1725.76 2536.61 1711.87 2519.5 1711.87 2498V1642.08C1711.87 1427.11 1638.8 1375.35 1476.54 1375.35C1395.4 1375.35 1306.65 1379.3 1245.24 1386.75V2498.44C1246.13 2519.06 1229.55 2536.17 1208.93 2536.61C1208.48 2536.61 1208.03 2536.61 1207.59 2536.61H944.911C923.843 2536.61 907.258 2519.94 907.258 2499.32C907.258 2498.88 907.258 2498.44 907.258 2498V1244.61C907.258 1158.19 931.015 1137.13 1008.11 1125.72C1113 1110.37 1338.03 1093.26 1438.88 1093.26C1822.14 1093.26 2049.4 1196.79 2049.4 1642.52V2498.88C2050.3 2519.5 2033.71 2536.61 2013.09 2537.05C2013.09 2536.61 2012.64 2536.61 2012.19 2536.61Z" fill="white"/>
<path d="M2640.64 1311.74H2383.79C2362.28 1311.74 2344.35 1294.63 2344.35 1273.13V1094.58C2344.35 1073.52 2362.28 1055.97 2383.79 1055.97H2640.64C2662.16 1055.97 2680.09 1073.08 2680.09 1094.58V1273.13C2680.09 1294.63 2662.61 1311.74 2640.64 1311.74ZM2632.57 2536.61H2391.41C2369.9 2536.61 2351.97 2519.5 2351.97 2498V1474.94C2351.97 1453.88 2369.9 1436.33 2391.41 1436.33H2632.57C2654.09 1436.33 2672.02 1453.44 2672.02 1474.94V2498.44C2672.02 2519.5 2654.54 2536.61 2632.57 2536.61Z" fill="white"/>
<path d="M1322.34 3187.65C1310.68 3190.28 1298.58 3192.04 1286.93 3192.04C1259.58 3192.04 1244.79 3176.68 1244.79 3150.36V3137.64C1244.79 3111.32 1259.58 3095.96 1286.93 3095.96C1299.03 3095.96 1310.68 3097.72 1322.34 3100.35C1326.82 3101.23 1327.72 3102.54 1327.72 3105.17V3183.26C1327.72 3185.46 1327.27 3186.77 1322.34 3187.65ZM1300.82 3118.33C1296.34 3117.9 1291.86 3117.46 1286.93 3117.46C1274.82 3117.46 1271.69 3125.79 1271.69 3137.2V3149.92C1271.69 3161.33 1274.82 3170.1 1286.93 3170.1C1291.41 3170.1 1296.34 3169.66 1300.82 3169.23V3118.33Z" fill="white"/>
<path d="M1534.81 3152.12H1481.02V3152.55C1481.02 3161.77 1485.05 3170.1 1498.5 3170.1C1509.26 3170.1 1524.05 3169.23 1530.77 3168.79H1531.22C1533.02 3168.79 1534.36 3169.66 1534.36 3171.42V3183.7C1534.36 3186.33 1533.91 3187.21 1530.77 3188.09C1519.57 3190.72 1507.91 3192.04 1496.26 3192.04C1476.09 3192.04 1454.12 3181.51 1454.12 3150.36V3138.95C1454.12 3112.63 1469.81 3095.96 1496.71 3095.96C1524.05 3095.96 1537.95 3114.39 1537.95 3138.95V3148.61C1538.39 3150.36 1537.05 3152.12 1534.81 3152.12ZM1511.95 3135.01C1511.95 3122.72 1506.12 3117.02 1496.71 3117.02C1487.29 3117.02 1481.02 3123.16 1481.02 3135.01V3135.88H1511.5V3135.01H1511.95Z" fill="white"/>
<path d="M1715 3116.59H1692.14V3186.78C1692.14 3188.53 1690.35 3190.29 1688.56 3190.29H1668.39C1666.59 3190.29 1664.8 3188.53 1664.8 3186.78V3090.26C1664.8 3067.89 1680.49 3062.62 1697.52 3062.62C1703.8 3062.62 1709.63 3063.06 1715.9 3063.94C1717.69 3064.38 1718.59 3064.82 1718.59 3065.7V3079.3C1718.59 3081.05 1718.14 3081.93 1716.35 3081.93H1698.87C1693.49 3081.93 1692.59 3085 1692.59 3089.82V3096.41H1715.45C1717.25 3096.41 1719.04 3097.72 1719.04 3099.92V3113.08C1718.14 3115.27 1716.8 3116.59 1715 3116.59Z" fill="white"/>
<path d="M1919.41 3152.12H1866.06V3152.55C1866.06 3161.77 1870.1 3170.1 1883.55 3170.1C1894.3 3170.1 1909.1 3169.23 1915.82 3168.79H1916.27C1918.06 3168.79 1919.41 3169.66 1919.41 3171.42V3183.7C1919.41 3186.33 1918.96 3187.21 1915.82 3188.09C1904.61 3190.72 1892.96 3192.04 1881.31 3192.04C1861.13 3192.04 1839.17 3181.51 1839.17 3150.36V3138.95C1839.17 3112.63 1854.86 3095.96 1881.75 3095.96C1909.1 3095.96 1922.99 3114.39 1922.99 3138.95V3148.61C1922.99 3150.36 1921.65 3152.12 1919.41 3152.12ZM1896.55 3135.01C1896.55 3122.72 1890.72 3117.02 1881.31 3117.02C1871.89 3117.02 1865.62 3123.16 1865.62 3135.01V3135.88H1896.1V3135.01H1896.55Z" fill="white"/>
<path d="M2091.53 3192.04H2088.84C2078.09 3192.04 2048.5 3188.97 2048.5 3150.8V3100.79C2048.5 3099.04 2049.85 3097.28 2051.64 3097.28H2072.26C2074.05 3097.28 2075.85 3099.04 2075.85 3100.79V3150.8C2075.85 3166.16 2080.78 3169.67 2088.84 3169.67H2091.09C2099.15 3169.67 2104.09 3166.16 2104.09 3150.8V3100.79C2104.09 3099.04 2105.43 3097.28 2107.67 3097.28H2128.29C2130.08 3097.28 2131.43 3099.04 2131.43 3100.79V3150.8C2131.43 3188.97 2101.84 3192.04 2091.53 3192.04Z" fill="white"/>
<path d="M2300.87 3192.04C2296.38 3192.04 2291.45 3191.6 2286.97 3190.72V3218.8C2286.97 3220.56 2285.63 3221.87 2283.39 3221.87H2263.21C2261.42 3221.87 2259.63 3220.56 2259.63 3218.8V3104.3C2259.63 3101.67 2260.08 3100.79 2265.01 3099.47C2276.66 3096.84 2288.76 3095.09 2300.87 3095.09C2328.21 3095.09 2343 3110.44 2343 3136.76V3149.49C2343 3175.81 2329.11 3192.04 2300.87 3192.04ZM2315.66 3137.2C2315.66 3125.8 2312.52 3117.46 2300.87 3117.46C2296.38 3117.46 2291.45 3117.46 2286.97 3118.34V3169.23C2291.45 3169.67 2295.94 3170.1 2300.87 3170.1C2312.97 3170.1 2315.66 3161.33 2315.66 3149.92V3137.2Z" fill="white"/>
<path d="M988.84 3145.1H1124.21L1104.49 3144.66H992.874L191.851 1796.51L330.36 1562.68L992.874 447.922H2594.92L3396.39 1796.51L2594.92 3144.66H2460" stroke="white" stroke-width="12" stroke-miterlimit="10"/>
</g>
<defs>
<clipPath id="clip0_3308_177">
<rect width="3586" height="3586" fill="white"/>
</clipPath>
</defs>
</svg>
