<svg xmlns="http://www.w3.org/2000/svg" version="1.1" xmlns:xlink="http://www.w3.org/1999/xlink" xmlns:svgjs="http://svgjs.dev/svgjs" width="16" height="16"><svg version="1.1" id="SvgjsSvg1005" xmlns="http://www.w3.org/2000/svg" xmlns:xlink="http://www.w3.org/1999/xlink" x="0px" y="0px" viewBox="0 0 16 16" style="enable-background:new 0 0 16 16;" xml:space="preserve">
<style type="text/css">
	.st0{fill:#9D2F21;}
	.st1{fill-rule:evenodd;clip-rule:evenodd;fill:#FFFFFF;}
</style>
<g>
	<rect x="-0.1" y="-0.1" class="st0" width="16.2" height="16.2"></rect>
	<path class="st1" d="M13.1,8.9l-0.4,0V8.4l0.2,0l0.7-0.6V7.7l0,0c0,0,0-0.1-0.1-0.1l-0.4,0v0l0,0l0,0v0l-0.4,0c0,0-0.1,0-0.1,0.1
		l0,0v1.7h-0.4v-2c0-0.2,0.1-0.3,0.3-0.3v0l0.7,0l0.7,0v0c0.1,0,0.3,0.1,0.3,0.3V8L13.1,8.9z M7.8,8.6L7.8,8.6l0-0.3v0V7.4h0
		c0-0.1,0.1-0.3,0.3-0.3h0.7h0.1h0.7c0.2,0,0.3,0.1,0.3,0.3l0,0v0.2v0.1V8l0,0c0,0.1-0.1,0.3-0.3,0.3H8.4V7.8h0.8c0,0,0.1,0,0.1-0.1
		c0,0,0-0.1-0.1-0.1H8.9H8.7H8.4c0,0-0.1,0-0.1,0.1v0.6v0v0c0,0,0,0.1,0.1,0.1l1.6,0c0,0,0.1,0,0.1-0.1V7.2h0.4v0.9l0,0v0
		c0,0.1,0,0.2,0.1,0.2c0,0,0.1,0.1,0.2,0.1l0,0l0.5,0c0.1,0,0.1,0,0.2-0.1c0.1-0.1,0.1-0.1,0.1-0.2V7.2H12v0.9
		c0,0.1,0.1,0.3,0.2,0.3v0.5l-4.1,0C7.9,8.9,7.8,8.7,7.8,8.6z M7,9.4H6.6V8.2H4.4C4.2,8.2,4.1,8.1,4.1,8h0V7.7v0V6.8h0
		c0-0.1,0.1-0.3,0.3-0.3H5h0.1h0.7c0.2,0,0.3,0.1,0.3,0.3h0V7v0.1v0.2h0c0,0.1-0.1,0.3-0.3,0.3H4.7V7.2h0.8c0,0,0.1,0,0.1-0.1
		c0,0,0-0.1-0.1-0.1H5.2H5H4.7c0,0-0.1,0-0.1,0.1v0.6v0v0c0,0,0,0.1,0.1,0.1h1.9V7.5l1.1-0.9l0,0.4L7,7.6v0.2h0.7v0.4H7V9.4z
		 M2.4,7.7L2.4,7.7C2.4,7.8,2.4,7.8,2.4,7.7l0.4,0.1h0.1h0.4c0,0,0.1,0,0.1-0.1v0h0.5V8h0c0,0.1-0.1,0.3-0.3,0.3H2.9H2.8H2.1
		C2,8.2,1.9,8.1,1.9,8l0,0V7.7h0V7.4h0c0-0.1,0.1-0.3,0.3-0.3H4v0.4L2.4,7.7C2.4,7.6,2.4,7.7,2.4,7.7z M3.3,7.1C3.3,7,3.3,7,3.3,7.1
		L1.9,7V6.6h1.7c0.2,0,0.3,0.1,0.3,0.3l0,0v0.3L3.3,7.1L3.3,7.1z"></path>
</g>
</svg><style>@media (prefers-color-scheme: light) { :root { filter: none; } }
@media (prefers-color-scheme: dark) { :root { filter: none; } }
</style></svg>